<svg width="176" height="20" viewBox="0 0 176 20" fill="none" xmlns="http://www.w3.org/2000/svg">
<path d="M14.588 0.403336H-3.47224e-05V19.596H14.788V14.5467H6.38063V12.322H13.5746V7.67533H6.38063V5.45334H14.588V0.403336Z" fill="#32A51B"/>
<path d="M58.6568 19.596H64.9361V13.838C64.9667 12.7566 64.8998 11.6747 64.7361 10.6053L71.2181 19.596H76.5834V0.403336H70.2028V6.16133C70.1741 7.27612 70.2411 8.3913 70.4028 9.49467L63.9228 0.504669H58.5554V19.596H58.6568Z" fill="black"/>
<path d="M85.3967 19.596H91.8787L98.8674 0.403336H92.1827L88.638 12.222L85.0927 0.403336H78.3074L85.3967 19.596Z" fill="black"/>
<path d="M100.584 0.403336H115.172V19.596H100.384V14.5467H108.791V12.322H101.597V7.67533H108.791V5.45334H100.584V0.403336Z" fill="black"/>
<path d="M168.851 10C168.851 12.6267 167.433 14.3433 165.003 14.3433C162.572 14.3433 161.053 12.626 161.053 10C161.053 7.37333 162.471 5.65667 165.003 5.65667C167.433 5.75733 168.851 7.374 168.851 10ZM154.571 10C154.571 15.4547 158.015 20 165.003 20C171.991 20 175.333 15.556 175.333 10C175.333 4.54533 171.889 0 164.901 0C157.913 0 154.571 4.54533 154.571 10Z" fill="black"/>
<path d="M153.761 0.403336H137.151V5.96H142.315V19.5967H148.698V5.95934H153.761V0.403336Z" fill="black"/>
<path d="M129.049 9.19133V5.55534H126.618C126.367 5.5268 126.113 5.55342 125.873 5.63334C125.634 5.71325 125.415 5.84454 125.231 6.018C125.048 6.19113 124.905 6.40223 124.812 6.63648C124.72 6.87073 124.679 7.12246 124.694 7.374C124.679 7.62548 124.719 7.87722 124.812 8.11142C124.905 8.34562 125.048 8.55656 125.231 8.72934C125.415 8.9028 125.634 9.03408 125.873 9.114C126.113 9.19392 126.367 9.22054 126.618 9.192L129.049 9.19133ZM135.328 19.596H128.947V13.9393H127.428L123.478 19.596H116.591L121.554 12.9293C119.629 12.02 118.211 10.202 118.211 7.17134C118.209 1.91867 122.263 0.403336 126.415 0.403336H135.328V19.596Z" fill="black"/>
<path d="M50.0467 10C50.0467 12.6267 48.6287 14.3433 46.198 14.3433C43.7673 14.3433 42.248 12.626 42.248 10C42.248 7.37333 43.666 5.65667 46.198 5.65667C48.5293 5.75733 50.0467 7.374 50.0467 10ZM35.6647 10C35.6647 15.4547 39.1087 20 46.0967 20C53.0847 20 56.5287 15.4547 56.5287 10C56.5287 4.54533 53.0847 0 46.0967 0C39.1087 0 35.6647 4.54533 35.6647 10Z" fill="#32A51B"/>
<path d="M17.3334 19.596H23.6134V12.7267H25.1327L29.184 19.5953H36.172L30.196 9.896L36.0707 0.403336H29.0827L25.2334 7.272H23.6134V0.403336H17.3334V19.596Z" fill="#32A51B"/>
</svg>
